<?xml version="1.0" standalone="no"?>
<!DOCTYPE svg PUBLIC "-//W3C//DTD SVG 20010904//EN"
 "http://www.w3.org/TR/2001/REC-SVG-20010904/DTD/svg10.dtd">
<svg version="1.0" xmlns="http://www.w3.org/2000/svg"
 width="260.000000pt" height="260.000000pt" viewBox="0 0 260.000000 260.000000"
 preserveAspectRatio="xMidYMid meet">
<metadata>
Created by potrace 1.11, written by Peter Selinger 2001-2013
</metadata>
<g transform="translate(0.000000,260.000000) scale(0.100000,-0.100000)"
fill="#000000" stroke="none">
<path d="M1723 2095 c-211 -57 -327 -221 -293 -413 14 -81 31 -115 84 -170 54
-57 135 -102 292 -161 182 -69 221 -87 275 -127 128 -94 133 -286 10 -397 -82
-74 -198 -103 -366 -92 -109 7 -231 29 -282 50 l-33 14 0 -54 c0 -54 0 -54 38
-64 104 -28 139 -32 287 -38 127 -4 174 -2 228 11 142 33 246 109 295 214 24
50 27 69 27 162 0 98 -2 109 -30 159 -56 102 -129 149 -372 242 -191 73 -242
100 -292 155 -91 98 -73 276 37 359 108 83 298 94 501 29 42 -13 80 -24 84
-24 8 0 37 62 37 79 0 13 -140 57 -222 71 -88 14 -243 11 -305 -5z"/>
</g>
</svg>
